<svg width="85" height="85" viewBox="0 0 85 85" fill="none" xmlns="http://www.w3.org/2000/svg">
<circle cx="42.5" cy="42.5" r="41.5" fill="#FBFBFB" stroke="#E7E7E7" stroke-width="2"/>
<path d="M20 39.5C18.6193 39.5 17.5 40.6193 17.5 42C17.5 43.3807 18.6193 44.5 20 44.5V39.5ZM66.7678 43.7678C67.7441 42.7915 67.7441 41.2085 66.7678 40.2322L50.8579 24.3223C49.8816 23.346 48.2986 23.346 47.3223 24.3223C46.346 25.2986 46.346 26.8816 47.3223 27.8579L61.4645 42L47.3223 56.1421C46.346 57.1184 46.346 58.7014 47.3223 59.6777C48.2986 60.654 49.8816 60.654 50.8579 59.6777L66.7678 43.7678ZM20 44.5H65V39.5H20V44.5Z" fill="#BDBDBD"/>
</svg>
