<svg width="528" height="467" viewBox="0 0 528 467" fill="none" xmlns="http://www.w3.org/2000/svg">
<path id="fish-2" d="M180.99 220.865L170.99 211.865C193.634 206.655 202.897 209.085 218.49 214.865C250.49 215.865 285.602 241.329 285.49 260.865C285.49 276.365 254.49 289.865 227.49 294.865C206.953 305.543 195.356 307.128 174.49 300.365L183.49 291.865C165.73 285.671 155.769 280.871 137.99 267.865C91.5123 292.144 74.34 298.479 106.49 258.365C76.5152 211.395 88.2096 214.374 135.49 246.865C155.195 232.716 165.545 226.222 180.99 220.865Z" fill="black"/>
<path id="fish-1" d="M355.144 173.45L347.215 166.282C365.169 162.133 372.513 164.068 384.877 168.671C410.249 169.468 438.089 189.748 438 205.307C438 217.651 413.42 228.403 392.013 232.385C375.729 240.889 366.534 242.152 349.99 236.766L357.126 229.996C343.045 225.063 335.147 221.24 321.05 210.882C284.199 230.218 270.584 235.264 296.074 203.316C272.308 165.907 281.58 168.28 319.068 194.157C334.692 182.888 342.898 177.716 355.144 173.45Z" fill="black"/>
</svg>
