<svg width="528" height="467" viewBox="0 0 528 467" fill="none" xmlns="http://www.w3.org/2000/svg">
<path id="test-bg" d="M0 0H528V467H0V0Z" fill="url(#paint0_linear_102_13)"/>
<path id="fish-1" d="M260 171.057C330.956 169.944 349 185.057 364 231.557C373 235.557 377 238.557 369.5 241.057C374 246.057 370.5 247.557 363 246.557C359.5 251.057 338 269.557 318.5 274.557C307 283.057 302.5 291.557 285.5 296.557L293.5 277.557C215 309.557 188 251.957 205 248.557C187.5 252.057 176.5 275.557 154 273.057C166 261.057 168.5 219.557 154 202.057C178.5 202.057 192.5 233.057 201.5 228.557C183.5 227.557 207.5 171.057 260 171.057Z" fill="black"/>
</svg>
