<svg width="528" height="467" viewBox="0 0 528 467" fill="none" xmlns="http://www.w3.org/2000/svg">
<path id="fish-3" d="M371.384 263.693L362.329 255.582C382.832 250.887 391.218 253.077 405.337 258.286C434.31 259.187 466.101 282.136 466 299.742C466 313.711 437.932 325.877 413.485 330.383C394.891 340.006 384.391 341.435 365.498 335.34L373.647 327.68C357.567 322.097 348.548 317.772 332.451 306.05C290.369 327.931 274.821 333.641 303.93 297.489C276.791 255.158 287.379 257.843 330.187 287.125C348.029 274.373 357.4 268.521 371.384 263.693Z" fill="black"/>
<path id="fish-2" d="M152.99 198.865L142.99 189.865C165.634 184.655 174.897 187.085 190.49 192.865C222.49 193.865 257.602 219.329 257.49 238.865C257.49 254.365 226.49 267.865 199.49 272.865C178.953 283.543 167.356 285.128 146.49 278.365L155.49 269.865C137.73 263.671 127.769 258.871 109.99 245.865C63.5123 270.144 46.34 276.479 78.4896 236.365C48.5152 189.395 60.2096 192.374 107.49 224.865C127.195 210.716 137.545 204.222 152.99 198.865Z" fill="black"/>
<path id="fish-1" d="M282.849 110.817L273.744 102.612C294.362 97.8624 302.796 100.078 316.994 105.347C346.131 106.259 378.102 129.474 378 147.285C378 161.417 349.773 173.725 325.189 178.283C306.489 188.018 295.93 189.464 276.931 183.297L285.125 175.548C268.954 169.901 259.885 165.525 243.696 153.667C201.377 175.802 185.741 181.578 215.014 145.006C187.722 102.183 198.37 104.9 241.42 134.522C259.362 121.622 268.787 115.702 282.849 110.817Z" fill="black"/>
</svg>
