<svg width="1340" height="467" viewBox="0 0 1340 467" fill="none" xmlns="http://www.w3.org/2000/svg">
<path id="shark-1" d="M773.5 315L623 307.5C601.064 323.716 582.992 332.814 559.5 340.5C547.003 314.427 539.786 301.252 525.5 287.5L444.5 264C438.239 273.613 431.32 276.932 419.5 280C410.967 267.447 408.282 261.956 396 254.5H361.5C335.5 301 288 340.5 250 343C297.5 264 292.5 211.5 218 113.5C292 126.5 334.5 159 361.5 211.5H413.5C426.507 206.593 428.878 196.303 438 178.5C453.583 183.384 463.1 187.99 473.5 200C521.141 186.457 548.398 178.758 669.5 151C680.396 145.045 689.273 114.988 710.5 48C738.072 61.3321 757.023 82.8752 791.5 140.5C1224.5 175 1210.5 240 880.5 307.5C845 371.5 795.5 419.5 766.5 419.5C761 419.5 760.5 410.5 766.5 404.5C785 382.5 801.5 343 773.5 315Z" fill="black" fill-opacity="0.75"/>
</svg>
